Eesti keeles/Estonian language

Jääaja lemmiktegelased on tagasi uues jõulufilmis kogu perele!
Kogemata lõhub Sid ära Manny jõulurahnu ja satub jõuluvana "pahade laste nimekirja". Sid otsustab minna põhjapoolusele ning jõulutaadiga asjad korda seada, kuid põhjustab sellise tohuvapohu, et jõulud võivad üldse ära jääda.
Nüüd peavad Manny ja tema ürgaegsed semud appi tulema!

Oma hääle andsid: Anu Lamp, Lembit Ulfsak, Sonja kõrvits, Tiit Sukk, Ivo Uukkivi, Kärt Kross, Tõnu Oja, Kristjan Üksküla, Evelin Pang


Screencaps: http://www.hotimg.com/direct/3z5bm72.jpg


Format                           : Matroska
Format version                   : Version 2
File size                        : 892 MiB
Duration                         : 25mn 30s
Overall bit rate                 : 4 888 Kbps

Complete name                    : Ice Age. A Mammoth Christmas 2011 720p WEB-DL EstDub.mkv
Format                           : Matroska
Format version                   : Version 2
File size                        : 892 MiB
Duration                         : 25mn 30s
Overall bit rate                 : 4 888 Kbps
Encoded date                     : UTC 2011-11-30 21:15:50
Writing application              : mkvmerge v3.3.0 ('Language\') built on Mar 24 2010 14:59:24
Writing library                  : libebml v0.8.0 + libmatroska v0.9.0

Video
ID                               : 1
Format                           : AVC
Format/Info                      : Advanced Video Codec
Format profile                   : High@L3.1
Format settings, CABAC           : No
Format settings, ReFrames        : 2 frames
Codec ID                         : V_MPEG4/ISO/AVC
Duration                         : 25mn 30s
Bit rate                         : 4 022 Kbps
Width                            : 1 280 pixels
Height                           : 720 pixels
Display aspect ratio             : 16:9
Frame rate                       : 23.976 fps
Color space                      : YUV
Chroma subsampling               : 4:2:0
Bit depth                        : 8 bits
Scan type                        : Progressive
Bits/(Pixel*Frame)               : 0.182
Stream size                      : 734 MiB (82%)
Language                         : English
Color primaries                  : BT.709-5, BT.1361, IEC 61966-2-4, SMPTE RP177
Transfer characteristics         : BT.709-5, BT.1361
Matrix coefficients              : BT.709-5, BT.1361, IEC 61966-2-4 709, SMPTE RP177

Audio #1
ID                               : 2
Format                           : AC-3
Format/Info                      : Audio Coding 3
Mode extension                   : CM (complete main)
Codec ID                         : A_AC3
Duration                         : 25mn 30s
Bit rate mode                    : Constant
Bit rate                         : 384 Kbps
Channel(s)                       : 6 channels
Channel positions                : Front: L C R, Side: L R, LFE
Sampling rate                    : 48.0 KHz
Bit depth                        : 16 bits
Compression mode                 : Lossy
Stream size                      : 70.1 MiB (8%)
Language                         : Estonian




Visitit my account:  http://thepiratebay.org/user/eestiasi      

Estonian music, movies & audiobooks download: http://eestiasi.posterous.com/

More info: info.eestiasi@gmail.com

No credit for me...credit to EVERYONE for sharing!